<?xml version="1.0" standalone="no"?>
<!DOCTYPE svg PUBLIC "-//W3C//DTD SVG 20010904//EN"
 "http://www.w3.org/TR/2001/REC-SVG-20010904/DTD/svg10.dtd">
<svg version="1.0" xmlns="http://www.w3.org/2000/svg"
 width="512.000000pt" height="512.000000pt" viewBox="0 0 512.000000 512.000000"
 preserveAspectRatio="xMidYMid meet">
<metadata>
Created by potrace 1.14, written by Peter Selinger 2001-2017
</metadata>
<g transform="translate(0.000000,512.000000) scale(0.100000,-0.100000)"
fill="#000000" stroke="none">
<path d="M2016 4565 c-91 -26 -163 -72 -221 -140 -75 -87 -84 -114 -164 -497
-12 -54 -21 -100 -21 -103 0 -2 -271 -5 -603 -5 -654 0 -666 -1 -766 -56 -79
-43 -158 -127 -194 -205 -46 -101 -46 -76 -46 -1279 0 -1235 -2 -1189 56
-1295 47 -89 162 -175 273 -205 24 -7 83 -13 130 -15 47 -2 88 -4 91 -4 4 -1
10 -13 13 -28 8 -31 54 -98 88 -130 13 -12 46 -32 73 -45 l50 -22 1985 -2
c1092 0 2010 3 2039 7 117 18 233 105 287 216 l29 58 2 1135 c2 777 -1 1148
-8 1176 -24 92 -128 186 -245 220 -49 14 -50 16 -52 54 -6 96 -72 230 -147
298 -51 47 -130 91 -189 106 -29 8 -113 14 -196 15 -79 1 -146 4 -148 6 -2 2
-5 34 -7 72 -7 144 -63 240 -165 285 -57 25 -185 27 -249 4 -119 -43 -192
-161 -195 -316 -1 -45 -1 -45 -36 -45 -33 0 -35 2 -48 50 -30 104 -127 209
-214 230 -24 6 -28 15 -43 83 -43 195 -149 320 -318 374 -57 19 -90 21 -415
22 -332 2 -357 1 -426 -19z m797 -229 c56 -25 105 -83 123 -144 9 -30 13 -56
10 -59 -3 -3 -115 -7 -248 -8 -134 -1 -253 -5 -264 -8 -40 -10 -105 -48 -145
-84 -75 -67 -82 -88 -148 -393 -11 -52 -23 -111 -26 -130 -6 -34 -9 -37 -79
-59 -41 -12 -102 -36 -137 -54 l-64 -31 -516 -2 c-284 0 -533 -4 -554 -8 -109
-21 -195 -105 -221 -216 -4 -19 -9 -507 -10 -1085 -1 -577 -2 -1054 -3 -1058
-2 -13 -143 0 -181 17 -42 19 -68 41 -95 81 -20 29 -20 49 -23 1168 l-2 1138
21 49 c23 54 73 104 125 126 26 11 159 14 689 14 563 1 661 3 686 15 50 26 58
46 94 233 34 172 80 372 91 394 27 52 90 102 153 120 7 2 165 3 350 3 292 -2
341 -4 374 -19z m1652 -771 c62 -41 97 -90 113 -162 l9 -40 -523 0 c-471 0
-524 2 -528 16 -5 17 -13 59 -22 106 -3 17 -9 47 -14 68 l-8 38 471 -3 c450
-3 473 -4 502 -23z"/>
<path d="M709 4263 c-72 -44 -75 -148 -6 -192 30 -19 49 -20 360 -21 368 -1
386 2 413 66 18 44 18 70 -3 105 -34 57 -50 60 -410 59 -281 -1 -332 -3 -354
-17z"/>
</g>
</svg>
