<?xml version="1.0" encoding="iso-8859-1"?>
<!-- Generator: Adobe Illustrator 19.1.0, SVG Export Plug-In . SVG Version: 6.00 Build 0)  -->
<svg version="1.1" id="Capa_1" xmlns="http://www.w3.org/2000/svg" xmlns:xlink="http://www.w3.org/1999/xlink" x="0px" y="0px"
	 viewBox="0 0 67 67" style="enable-background:new 0 0 67 67;" xml:space="preserve">
<g>
	<g id="group-17svg">
		<path id="path-1_7_" style="fill:#8B71B5;" d="M62.155,22.997H46.326l-1.393-6.636c-0.499-1.998-2.294-3.367-4.353-3.367h-7.577
			c-2.059,0-3.854,1.369-4.353,3.367l-1.394,6.636H10.883C8.482,22.997,7,24.62,7,27.021v28.372c0,2.411,1.473,4.616,3.883,4.616
			h51.272c2.41,0,4.845-2.205,4.845-4.616V27.021C67,24.62,64.555,22.997,62.155,22.997z"/>
		<path id="path-2_7_" d="M57.155,57.007H5.883C2.584,57.007,0,54.541,0,51.393V23.02c0-3.266,2.694-6.025,5.883-6.025h15.155
			l1.145-5.444c0.674-2.707,3.063-4.559,5.82-4.559h7.577c2.757,0,5.146,1.852,5.808,4.505l1.156,5.498h14.611
			c3.168,0,5.845,2.759,5.845,6.025v28.373C63,54.594,60.487,57.007,57.155,57.007z M5.883,19.996C4.347,19.996,3,21.409,3,23.02
			v28.373c0,1.515,1.212,2.614,2.883,2.614h51.272c1.649,0,2.845-1.099,2.845-2.614V23.02c0-1.611-1.329-3.024-2.845-3.024H41.326
			c-0.71,0-1.322-0.497-1.468-1.191l-1.393-6.636c-0.316-1.258-1.507-2.176-2.885-2.176h-7.577c-1.378,0-2.569,0.918-2.898,2.23
			l-1.381,6.582c-0.146,0.694-0.758,1.191-1.468,1.191H5.883z"/>
		<path id="path-3_7_" style="fill:#53ECF4;" d="M50.039,40.486c0,7.652-6.201,13.855-13.851,13.855s-13.851-6.203-13.851-13.855
			s6.201-13.856,13.851-13.856S50.039,32.833,50.039,40.486z"/>
		<path id="path-4_7_" style="fill:#FFFFFF;" d="M44.682,40.486c0,4.692-3.803,8.496-8.494,8.496s-8.494-3.804-8.494-8.496
			c0-4.693,3.803-8.497,8.494-8.497S44.682,35.792,44.682,40.486z"/>
		<path id="path-5_7_" d="M31.188,46.48c-5.51,0-9.994-4.485-9.994-9.996c0-5.513,4.484-9.997,9.994-9.997s9.994,4.484,9.994,9.997
			C41.182,41.995,36.698,46.48,31.188,46.48z M31.188,29.489c-3.856,0-6.994,3.138-6.994,6.996c0,3.857,3.138,6.995,6.994,6.995
			c3.857,0,6.994-3.138,6.994-6.995C38.182,32.627,35.045,29.489,31.188,29.489z"/>
		<path id="path-6_6_" d="M31.188,51.84c-8.464,0-15.351-6.889-15.351-15.355c0-8.468,6.887-15.356,15.351-15.356
			s15.351,6.888,15.351,15.356C46.539,44.951,39.652,51.84,31.188,51.84z M31.188,24.128c-6.81,0-12.351,5.543-12.351,12.356
			c0,6.812,5.541,12.354,12.351,12.354c6.811,0,12.351-5.542,12.351-12.354C43.539,29.672,37.999,24.128,31.188,24.128z"/>
		<path id="path-7_6_" d="M18,13.994h-8c-0.828,0-1.5-0.672-1.5-1.5s0.672-1.5,1.5-1.5h8c0.828,0,1.5,0.672,1.5,1.5
			S18.828,13.994,18,13.994z"/>
		<path id="path-8_5_" d="M49.859,11.994h0.622c2.379,0,3.519,1.881,3.519,4.261v1.741h-8v-1.741
			C46,13.875,47.48,11.994,49.859,11.994z"/>
	</g>
</g>
<g>
</g>
<g>
</g>
<g>
</g>
<g>
</g>
<g>
</g>
<g>
</g>
<g>
</g>
<g>
</g>
<g>
</g>
<g>
</g>
<g>
</g>
<g>
</g>
<g>
</g>
<g>
</g>
<g>
</g>
</svg>
